# xmcd
#
# Track frame offsets:
#	152
#	18974
#	42119
#	61597
#	75398
#	94916
#	114716
#	141902
#	159055
#	172910
#	186776
#	200498
#
# Disc length: 2825 seconds
#
# Revision: 1
# Processed by: cddbd v1.5.2PL0 Copyright (c) Steve Scherf et al.
# Submitted via: audiograbber 1.83.01
#
DISCID=8b0b070c
DTITLE=Various Blues - Mississippi Blues Festival
DYEAR=1986
DGENRE=Blues
TTITLE0=Eagle Bird (feat.  J.M.Hemphill)
TTITLE1=My Daddy's Blues (feat.  J.M.Hemphill)
TTITLE2=I'm So Glad You Don't Know What's On My Mind (feat.  J.M.Hemphill)
TTITLE3=Go Back To Your Used To Be (feat.  J.M.Hemphill)
TTITLE4=Streamline Train (feat.  J.M.Hemphill)
TTITLE5=I'm So Glad You Don't Know What's On My Mind (feat.  J. Mae Hemphill)
TTITLE6=My Daddy's Blues (feat.  J.M.Hemphill)
TTITLE7=Roll Me Baby (feat. Hezekiah Early)
TTITLE8=She Used To Be Your Woman (feat. Hezekiah Early)
TTITLE9=Lawdy Miss Clawdy (feat. Lloyd Price)
TTITLE10=Saint Louis Blues (feat. Hezekiah Early)
TTITLE11=12 - Don't Mess With My Toot Toot (rockin Sydney)
EXTD=YEAR: 1986
EXTT0=
EXTT1=
EXTT2=
EXTT3=
EXTT4=
EXTT5=
EXTT6=
EXTT7=
EXTT8=
EXTT9=
EXTT10=
EXTT11=
PLAYORDER=
